<svg width="21" height="75" viewBox="0 0 21 75" fill="none" xmlns="http://www.w3.org/2000/svg">
<rect x="10" y="2" width="11" height="71" rx="5" fill="#EDC126"/>
<rect x="1.5" y="1.5" width="17" height="72" rx="8.5" fill="#6666AA" stroke="#222266" stroke-width="3"/>
<g opacity="0.75" filter="url(#filter0_i_57_1584)">
<path d="M5 20.8427C9.07051 18.1161 11.2183 16.385 14.7491 12.8455" stroke="#222266" stroke-width="2"/>
<path d="M5 20.8427C9.07051 18.1161 11.2183 16.385 14.7491 12.8455" stroke="#222266" stroke-width="2"/>
<path d="M5 20.8427C9.07051 18.1161 11.2183 16.385 14.7491 12.8455" stroke="#222266" stroke-width="2"/>
<path d="M5.85364 12C8.86481 16.1628 10.7047 18.3112 14.3253 21.7291" stroke="#222266" stroke-width="2"/>
<path d="M5.85364 12C8.86481 16.1628 10.7047 18.3112 14.3253 21.7291" stroke="#222266" stroke-width="2"/>
<path d="M5.85364 12C8.86481 16.1628 10.7047 18.3112 14.3253 21.7291" stroke="#222266" stroke-width="2"/>
<path d="M5 41.8427C9.07051 39.1161 11.2183 37.385 14.7491 33.8455" stroke="#222266" stroke-width="2"/>
<path d="M5 41.8427C9.07051 39.1161 11.2183 37.385 14.7491 33.8455" stroke="#222266" stroke-width="2"/>
<path d="M5 41.8427C9.07051 39.1161 11.2183 37.385 14.7491 33.8455" stroke="#222266" stroke-width="2"/>
<path d="M5.85364 33C8.86481 37.1628 10.7047 39.3112 14.3253 42.7291" stroke="#222266" stroke-width="2"/>
<path d="M5.85364 33C8.86481 37.1628 10.7047 39.3112 14.3253 42.7291" stroke="#222266" stroke-width="2"/>
<path d="M5.85364 33C8.86481 37.1628 10.7047 39.3112 14.3253 42.7291" stroke="#222266" stroke-width="2"/>
<path d="M5 63.8427C9.07051 61.1161 11.2183 59.385 14.7491 55.8455" stroke="#222266" stroke-width="2"/>
<path d="M5 63.8427C9.07051 61.1161 11.2183 59.385 14.7491 55.8455" stroke="#222266" stroke-width="2"/>
<path d="M5 63.8427C9.07051 61.1161 11.2183 59.385 14.7491 55.8455" stroke="#222266" stroke-width="2"/>
<path d="M5.85364 55C8.86481 59.1628 10.7047 61.3112 14.3253 64.7291" stroke="#222266" stroke-width="2"/>
<path d="M5.85364 55C8.86481 59.1628 10.7047 61.3112 14.3253 64.7291" stroke="#222266" stroke-width="2"/>
<path d="M5.85364 55C8.86481 59.1628 10.7047 61.3112 14.3253 64.7291" stroke="#222266" stroke-width="2"/>
</g>
<defs>
<filter id="filter0_i_57_1584" x="4.54871" y="11.3185" width="10.8044" height="58.2345" filterUnits="userSpaceOnUse" color-interpolation-filters="sRGB">
<feFlood flood-opacity="0" result="BackgroundImageFix"/>
<feBlend mode="normal" in="SourceGraphic" in2="BackgroundImageFix" result="shape"/>
<feColorMatrix in="SourceAlpha" type="matrix" values="0 0 0 0 0 0 0 0 0 0 0 0 0 0 0 0 0 0 127 0" result="hardAlpha"/>
<feOffset dy="4"/>
<feGaussianBlur stdDeviation="2"/>
<feComposite in2="hardAlpha" operator="arithmetic" k2="-1" k3="1"/>
<feColorMatrix type="matrix" values="0 0 0 0 0 0 0 0 0 0 0 0 0 0 0 0 0 0 0.25 0"/>
<feBlend mode="normal" in2="shape" result="effect1_innerShadow_57_1584"/>
</filter>
</defs>
</svg>
