<svg width="42" height="50" viewBox="0 0 42 50" fill="none" xmlns="http://www.w3.org/2000/svg">
<rect width="5" height="50" rx="2.5" fill="#222266"/>
<rect x="1" y="1" width="3" height="48" rx="1.5" stroke="black" stroke-opacity="0.25" stroke-width="2"/>
<path d="M37 2.5C37 1.11929 38.1193 0 39.5 0C40.8807 0 42 1.11929 42 2.5V47.5C42 48.8807 40.8807 50 39.5 50C38.1193 50 37 48.8807 37 47.5V2.5Z" fill="#222266"/>
<path d="M38 2.5C38 1.67157 38.6716 1 39.5 1C40.3284 1 41 1.67157 41 2.5V47.5C41 48.3284 40.3284 49 39.5 49C38.6716 49 38 48.3284 38 47.5V2.5Z" stroke="black" stroke-opacity="0.25" stroke-width="2"/>
<g opacity="0.25">
<path d="M38 40L38 45.2372C24.7222 47.5528 17.2778 47.6221 4 45.2372L4 40C17.1394 42.5339 24.572 42.7502 38 40Z" fill="#222266"/>
<path d="M4.5 44.8186L4.5 40.6048C17.1354 43.0049 24.5772 43.2071 37.5 40.6116L37.5 44.8165C24.6722 47.0283 17.3232 47.0931 4.5 44.8186Z" stroke="black" stroke-opacity="0.25"/>
</g>
</svg>
